<svg width="32" height="32" viewBox="0 0 32 32" fill="none" xmlns="http://www.w3.org/2000/svg">
<path fill-rule="evenodd" clip-rule="evenodd" d="M4 4.8C4 4.58783 4.08429 4.38434 4.23432 4.23431C4.38435 4.08429 4.58784 4 4.80002 4H7.20006C7.37852 4.00005 7.55183 4.05976 7.69244 4.16964C7.83306 4.27952 7.93289 4.43325 7.97608 4.6064L8.62409 7.2H27.2005C27.3188 7.20007 27.4356 7.22638 27.5425 7.27704C27.6495 7.3277 27.7438 7.40144 27.8188 7.49296C27.8938 7.58447 27.9475 7.69148 27.9762 7.80627C28.0048 7.92106 28.0077 8.04078 27.9845 8.1568L26.3845 16.1568C26.3494 16.3313 26.2573 16.4891 26.1225 16.6053C25.9878 16.7215 25.8181 16.7894 25.6404 16.7984L10.6049 17.5536L11.0641 20H24.8004C25.0126 20 25.2161 20.0843 25.3661 20.2343C25.5161 20.3843 25.6004 20.5878 25.6004 20.8C25.6004 21.0122 25.5161 21.2157 25.3661 21.3657C25.2161 21.5157 25.0126 21.6 24.8004 21.6H10.4001C10.2136 21.5998 10.033 21.5345 9.88958 21.4153C9.74613 21.2961 9.64883 21.1305 9.61451 20.9472L7.21606 8.1712L6.57605 5.6H4.80002C4.58784 5.6 4.38435 5.51571 4.23432 5.36569C4.08429 5.21566 4 5.01217 4 4.8ZM8.9633 8.8L10.3073 15.9664L24.938 15.232L26.2244 8.8H8.9633ZM12.0002 21.6C11.1515 21.6 10.3375 21.9371 9.73737 22.5373C9.13725 23.1374 8.8001 23.9513 8.8001 24.8C8.8001 25.6487 9.13725 26.4626 9.73737 27.0627C10.3375 27.6629 11.1515 28 12.0002 28C12.8489 28 13.6628 27.6629 14.2629 27.0627C14.8631 26.4626 15.2002 25.6487 15.2002 24.8C15.2002 23.9513 14.8631 23.1374 14.2629 22.5373C13.6628 21.9371 12.8489 21.6 12.0002 21.6ZM23.2004 21.6C22.3517 21.6 21.5377 21.9371 20.9376 22.5373C20.3375 23.1374 20.0003 23.9513 20.0003 24.8C20.0003 25.6487 20.3375 26.4626 20.9376 27.0627C21.5377 27.6629 22.3517 28 23.2004 28C24.0491 28 24.863 27.6629 25.4632 27.0627C26.0633 26.4626 26.4005 25.6487 26.4005 24.8C26.4005 23.9513 26.0633 23.1374 25.4632 22.5373C24.863 21.9371 24.0491 21.6 23.2004 21.6ZM12.0002 23.2C11.5758 23.2 11.1688 23.3686 10.8688 23.6686C10.5687 23.9687 10.4001 24.3757 10.4001 24.8C10.4001 25.2243 10.5687 25.6313 10.8688 25.9314C11.1688 26.2314 11.5758 26.4 12.0002 26.4C12.4245 26.4 12.8315 26.2314 13.1316 25.9314C13.4316 25.6313 13.6002 25.2243 13.6002 24.8C13.6002 24.3757 13.4316 23.9687 13.1316 23.6686C12.8315 23.3686 12.4245 23.2 12.0002 23.2ZM23.2004 23.2C22.776 23.2 22.3691 23.3686 22.069 23.6686C21.7689 23.9687 21.6004 24.3757 21.6004 24.8C21.6004 25.2243 21.7689 25.6313 22.069 25.9314C22.3691 26.2314 22.776 26.4 23.2004 26.4C23.6247 26.4 24.0317 26.2314 24.3318 25.9314C24.6318 25.6313 24.8004 25.2243 24.8004 24.8C24.8004 24.3757 24.6318 23.9687 24.3318 23.6686C24.0317 23.3686 23.6247 23.2 23.2004 23.2Z" fill="#272727"/>
</svg>
